<svg width="24" height="24" viewBox="0 0 24 24" fill="none" xmlns="http://www.w3.org/2000/svg">
<path d="M3 16V8C3 6.67392 3.52678 5.40215 4.46447 4.46447C5.40215 3.52678 6.67392 3 8 3H16C17.3261 3 18.5979 3.52678 19.5355 4.46447C20.4732 5.40215 21 6.67392 21 8V16C21 17.3261 20.4732 18.5979 19.5355 19.5355C18.5979 20.4732 17.3261 21 16 21H8C6.67392 21 5.40215 20.4732 4.46447 19.5355C3.52678 18.5979 3 17.3261 3 16Z" stroke="#3B3B3B" stroke-width="1.6"/>
<path d="M16.5 14.4995C16.5 14.4995 15 16.4995 12 16.4995C9 16.4995 7.5 14.4995 7.5 14.4995" stroke="#3B3B3B" stroke-width="1.6" stroke-linecap="round" stroke-linejoin="round"/>
<path d="M7.9941 10.0727C7.84234 10.0727 7.69679 10.0124 7.58947 9.90507C7.48216 9.79776 7.42188 9.65221 7.42188 9.50045C7.42188 9.34868 7.48216 9.20314 7.58947 9.09582C7.69679 8.98851 7.84234 8.92822 7.9941 8.92822C8.14586 8.92822 8.29141 8.98851 8.39872 9.09582C8.50604 9.20314 8.56632 9.34868 8.56632 9.50045C8.56632 9.65221 8.50604 9.79776 8.39872 9.90507C8.29141 10.0124 8.14586 10.0727 7.9941 10.0727ZM16.0052 10.0727C15.8535 10.0727 15.7079 10.0124 15.6006 9.90507C15.4933 9.79776 15.433 9.65221 15.433 9.50045C15.433 9.34868 15.4933 9.20314 15.6006 9.09582C15.7079 8.98851 15.8535 8.92822 16.0052 8.92822C16.157 8.92822 16.3025 8.98851 16.4099 9.09582C16.5172 9.20314 16.5775 9.34868 16.5775 9.50045C16.5775 9.65221 16.5172 9.79776 16.4099 9.90507C16.3025 10.0124 16.157 10.0727 16.0052 10.0727Z" fill="#3B3B3B" stroke="#3B3B3B" stroke-width="1.6" stroke-linecap="round" stroke-linejoin="round"/>
</svg>
