<svg width="18" height="18" viewBox="0 0 18 18" fill="none" xmlns="http://www.w3.org/2000/svg">
<path d="M3 3H5.25L6.75 1.5H11.25L12.75 3H15C15.3978 3 15.7794 3.15804 16.0607 3.43934C16.342 3.72064 16.5 4.10218 16.5 4.5V13.5C16.5 13.8978 16.342 14.2794 16.0607 14.5607C15.7794 14.842 15.3978 15 15 15H3C2.60218 15 2.22064 14.842 1.93934 14.5607C1.65804 14.2794 1.5 13.8978 1.5 13.5V4.5C1.5 4.10218 1.65804 3.72064 1.93934 3.43934C2.22064 3.15804 2.60218 3 3 3ZM9 5.25C8.00544 5.25 7.05161 5.64509 6.34835 6.34835C5.64509 7.05161 5.25 8.00544 5.25 9C5.25 9.99456 5.64509 10.9484 6.34835 11.6517C7.05161 12.3549 8.00544 12.75 9 12.75C9.99456 12.75 10.9484 12.3549 11.6517 11.6517C12.3549 10.9484 12.75 9.99456 12.75 9C12.75 8.00544 12.3549 7.05161 11.6517 6.34835C10.9484 5.64509 9.99456 5.25 9 5.25ZM9 6.75C9.59674 6.75 10.169 6.98705 10.591 7.40901C11.0129 7.83097 11.25 8.40326 11.25 9C11.25 9.59674 11.0129 10.169 10.591 10.591C10.169 11.0129 9.59674 11.25 9 11.25C8.40326 11.25 7.83097 11.0129 7.40901 10.591C6.98705 10.169 6.75 9.59674 6.75 9C6.75 8.40326 6.98705 7.83097 7.40901 7.40901C7.83097 6.98705 8.40326 6.75 9 6.75Z" fill="white"/>
</svg>
