<svg width="28" height="24" viewBox="0 0 28 24" fill="none" xmlns="http://www.w3.org/2000/svg">
<path d="M24.75 2.66667H20.3913L17.875 0H9.625L7.10875 2.66667H2.75C2.02065 2.66667 1.32118 2.94762 0.805456 3.44772C0.289731 3.94781 0 4.62609 0 5.33333V21.3333C0 22.0406 0.289731 22.7189 0.805456 23.219C1.32118 23.719 2.02065 24 2.75 24H24.75C25.4793 24 26.1788 23.719 26.6945 23.219C27.2103 22.7189 27.5 22.0406 27.5 21.3333V5.33333C27.5 4.62609 27.2103 3.94781 26.6945 3.44772C26.1788 2.94762 25.4793 2.66667 24.75 2.66667ZM24.75 21.3333H2.75V5.33333H8.31875L10.835 2.66667H16.665L19.1812 5.33333H24.75V21.3333ZM13.75 6.66667C11.9266 6.66667 10.178 7.36905 8.88864 8.61929C7.59933 9.86953 6.875 11.5652 6.875 13.3333C6.875 15.1014 7.59933 16.7971 8.88864 18.0474C10.178 19.2976 11.9266 20 13.75 20C15.5734 20 17.322 19.2976 18.6114 18.0474C19.9007 16.7971 20.625 15.1014 20.625 13.3333C20.625 11.5652 19.9007 9.86953 18.6114 8.61929C17.322 7.36905 15.5734 6.66667 13.75 6.66667ZM13.75 17.3333C12.656 17.3333 11.6068 16.9119 10.8332 16.1618C10.0596 15.4116 9.625 14.3942 9.625 13.3333C9.625 12.2725 10.0596 11.2551 10.8332 10.5049C11.6068 9.75476 12.656 9.33333 13.75 9.33333C14.844 9.33333 15.8932 9.75476 16.6668 10.5049C17.4404 11.2551 17.875 12.2725 17.875 13.3333C17.875 14.3942 17.4404 15.4116 16.6668 16.1618C15.8932 16.9119 14.844 17.3333 13.75 17.3333Z" fill="white"/>
</svg>
