<svg width="68" height="112" viewBox="0 0 68 112" fill="none" xmlns="http://www.w3.org/2000/svg">
<rect width="68" height="68" rx="34" fill="#FFBA02"/>
<path d="M45 23.3332H40.6413L38.125 20.6665H29.875L27.3588 23.3332H23C22.2707 23.3332 21.5712 23.6141 21.0555 24.1142C20.5397 24.6143 20.25 25.2926 20.25 25.9998V41.9998C20.25 42.7071 20.5397 43.3854 21.0555 43.8855C21.5712 44.3856 22.2707 44.6665 23 44.6665H45C45.7293 44.6665 46.4288 44.3856 46.9445 43.8855C47.4603 43.3854 47.75 42.7071 47.75 41.9998V25.9998C47.75 25.2926 47.4603 24.6143 46.9445 24.1142C46.4288 23.6141 45.7293 23.3332 45 23.3332ZM45 41.9998H23V25.9998H28.5688L31.085 23.3332H36.915L39.4312 25.9998H45V41.9998ZM34 27.3332C32.1766 27.3332 30.428 28.0355 29.1386 29.2858C27.8493 30.536 27.125 32.2317 27.125 33.9998C27.125 35.7679 27.8493 37.4636 29.1386 38.7139C30.428 39.9641 32.1766 40.6665 34 40.6665C35.8234 40.6665 37.572 39.9641 38.8614 38.7139C40.1507 37.4636 40.875 35.7679 40.875 33.9998C40.875 32.2317 40.1507 30.536 38.8614 29.2858C37.572 28.0355 35.8234 27.3332 34 27.3332ZM34 37.9998C32.906 37.9998 31.8568 37.5784 31.0832 36.8283C30.3096 36.0781 29.875 35.0607 29.875 33.9998C29.875 32.939 30.3096 31.9216 31.0832 31.1714C31.8568 30.4213 32.906 29.9998 34 29.9998C35.094 29.9998 36.1432 30.4213 36.9168 31.1714C37.6904 31.9216 38.125 32.939 38.125 33.9998C38.125 35.0607 37.6904 36.0781 36.9168 36.8283C36.1432 37.5784 35.094 37.9998 34 37.9998Z" fill="white"/>
</svg>
