<svg width="23" height="23" viewBox="0 0 23 23" fill="none" xmlns="http://www.w3.org/2000/svg">
<path d="M19.9455 11.2631C19.947 12.403 19.7234 13.532 19.2878 14.5854C18.8521 15.6388 18.2128 16.5958 17.4066 17.4016C16.5999 18.2084 15.6422 18.8483 14.5881 19.2848C13.534 19.7212 12.4043 19.9457 11.2634 19.9452C10.0355 19.9479 8.82118 19.6888 7.7014 19.185L4.07182 19.7218C3.89161 19.7513 3.70694 19.7362 3.53385 19.6781C3.36076 19.6199 3.20448 19.5204 3.0786 19.3881C2.95271 19.2559 2.86102 19.0949 2.81149 18.9191C2.76196 18.7434 2.75609 18.5582 2.79438 18.3796L3.29841 14.6975C2.81897 13.6164 2.57455 12.4458 2.58132 11.2631C2.57986 10.1232 2.80338 8.99425 3.23906 7.94089C3.67474 6.88753 4.31401 5.93051 5.12024 5.12467C5.92687 4.31786 6.8846 3.67794 7.93868 3.24149C8.99277 2.80504 10.1225 2.58062 11.2634 2.58106C13.5673 2.58121 15.7769 3.4961 17.4066 5.12467C18.2124 5.93082 18.8514 6.8879 19.287 7.94119C19.7227 8.99448 19.9464 10.1233 19.9455 11.2631Z" stroke="#3B3B3B" stroke-width="1.68949" stroke-linecap="round" stroke-linejoin="round"/>
</svg>
