<svg width="24" height="24" viewBox="0 0 24 24" fill="none" xmlns="http://www.w3.org/2000/svg">
<path d="M12 2.00049C17.523 2.00049 22 6.47749 22 12.0005C22 17.5235 17.523 22.0005 12 22.0005C6.477 22.0005 2 17.5235 2 12.0005C2 6.47749 6.477 2.00049 12 2.00049ZM12 4.00049C9.87827 4.00049 7.84344 4.84334 6.34315 6.34363C4.84285 7.84392 4 9.87876 4 12.0005C4 14.1222 4.84285 16.1571 6.34315 17.6573C7.84344 19.1576 9.87827 20.0005 12 20.0005C14.1217 20.0005 16.1566 19.1576 17.6569 17.6573C19.1571 16.1571 20 14.1222 20 12.0005C20 9.87876 19.1571 7.84392 17.6569 6.34363C16.1566 4.84334 14.1217 4.00049 12 4.00049ZM12 6.00049C12.2449 6.00052 12.4813 6.09044 12.6644 6.2532C12.8474 6.41596 12.9643 6.64024 12.993 6.88349L13 7.00049V11.5865L15.707 14.2935C15.8863 14.4734 15.9905 14.7149 15.9982 14.9689C16.006 15.2228 15.9168 15.4702 15.7488 15.6608C15.5807 15.8513 15.3464 15.9708 15.0935 15.9949C14.8406 16.019 14.588 15.9459 14.387 15.7905L14.293 15.7075L11.293 12.7075C11.1376 12.5519 11.0378 12.3495 11.009 12.1315L11 12.0005V7.00049C11 6.73527 11.1054 6.48092 11.2929 6.29338C11.4804 6.10585 11.7348 6.00049 12 6.00049Z" fill="white"/>
</svg>
