<svg width="24" height="24" viewBox="0 0 24 24" fill="none" xmlns="http://www.w3.org/2000/svg">
<g clip-path="url(#clip0_963_2325)">
<path d="M20 12C20 11.4696 20.2107 10.9609 20.5858 10.5858C20.9609 10.2107 21.4696 10 22 10C22.5304 10 23.0391 10.2107 23.4142 10.5858C23.7893 10.9609 24 11.4696 24 12C24 12.5304 23.7893 13.0391 23.4142 13.4142C23.0391 13.7893 22.5304 14 22 14C21.4696 14 20.9609 13.7893 20.5858 13.4142C20.2107 13.0391 20 12.5304 20 12ZM14 12C14 11.4696 14.2107 10.9609 14.5858 10.5858C14.9609 10.2107 15.4696 10 16 10C16.5304 10 17.0391 10.2107 17.4142 10.5858C17.7893 10.9609 18 11.4696 18 12C18 12.5304 17.7893 13.0391 17.4142 13.4142C17.0391 13.7893 16.5304 14 16 14C15.4696 14 14.9609 13.7893 14.5858 13.4142C14.2107 13.0391 14 12.5304 14 12ZM8 12C8 11.4696 8.21071 10.9609 8.58579 10.5858C8.96086 10.2107 9.46957 10 10 10C10.5304 10 11.0391 10.2107 11.4142 10.5858C11.7893 10.9609 12 11.4696 12 12C12 12.5304 11.7893 13.0391 11.4142 13.4142C11.0391 13.7893 10.5304 14 10 14C9.46957 14 8.96086 13.7893 8.58579 13.4142C8.21071 13.0391 8 12.5304 8 12Z" fill="#3B3B3B"/>
</g>
<defs>
<clipPath id="clip0_963_2325">
<rect width="24" height="24" fill="white"/>
</clipPath>
</defs>
</svg>
