<svg width="22" height="22" viewBox="0 0 22 22" fill="none" xmlns="http://www.w3.org/2000/svg">
<path d="M3.12261 10.8999H0.900391L10.9004 0.899902L20.9004 10.8999H18.6782M3.12261 10.8999V18.6777C3.12261 19.2671 3.35674 19.8323 3.77349 20.249C4.19023 20.6658 4.75547 20.8999 5.34484 20.8999H16.4559C17.0453 20.8999 17.6105 20.6658 18.0273 20.249C18.444 19.8323 18.6782 19.2671 18.6782 18.6777V10.8999" stroke="#3B3B3B" stroke-width="1.8" stroke-linecap="round" stroke-linejoin="round"/>
<path d="M8.31348 20.4079V15.2339C8.31348 14.7765 8.49518 14.3379 8.81862 14.0144C9.14206 13.691 9.58073 13.5093 10.0381 13.5093H11.7628C12.2202 13.5093 12.6589 13.691 12.9823 14.0144C13.3058 14.3379 13.4875 14.7765 13.4875 15.2339V20.4079" stroke="#3B3B3B" stroke-width="1.8" stroke-linecap="round" stroke-linejoin="round"/>
</svg>
