<svg width="28" height="28" viewBox="0 0 28 28" fill="none" xmlns="http://www.w3.org/2000/svg">
<path fill-rule="evenodd" clip-rule="evenodd" d="M7.81826 17.1973C8.49025 18.2987 9.4607 19.1871 10.6171 19.7594C11.7735 20.3317 13.0684 20.5644 14.3517 20.4307C15.635 20.2969 16.854 19.8021 17.8675 19.0036C18.881 18.2051 19.6474 17.1356 20.0777 15.9193H22.4541C22.0181 17.6047 21.1077 19.1297 19.8309 20.3133C18.5542 21.4969 16.9648 22.2894 15.2512 22.5968C13.5376 22.9041 11.7718 22.7135 10.1633 22.0475C8.55477 21.3814 7.17108 20.268 6.17639 18.8392L3.41113 21.6044V14.7822H10.2333L7.81826 17.1973ZM19.4717 10.092C18.7994 8.99039 17.8286 8.10193 16.6718 7.52964C15.5151 6.95734 14.2198 6.72465 12.9363 6.85854C11.6527 6.99243 10.4333 7.48743 9.41959 8.28613C8.40588 9.08483 7.63932 10.1545 7.20881 11.3711H4.83242C5.26831 9.68505 6.17878 8.1594 7.45577 6.97524C8.73276 5.79108 10.3227 4.99814 12.0368 4.6905C13.751 4.38287 15.5174 4.57345 17.1264 5.23965C18.7355 5.90585 20.1197 7.01968 21.1147 8.44898L23.8777 5.68599V12.5082H17.0555L19.4717 10.092Z" fill="white"/>
</svg>
