<svg width="11" height="11" viewBox="0 0 11 11" fill="none" xmlns="http://www.w3.org/2000/svg">
<path d="M3.2588 9.87437L8.56527 4.5679L6.0448 2.04743L0.738326 7.3539C0.665204 7.42699 0.613298 7.51857 0.588149 7.61885L0 10.6127L2.99328 10.0245C3.09378 9.99942 3.18571 9.94746 3.2588 9.87437ZM10.2783 2.85485C10.4924 2.64068 10.6127 2.35025 10.6127 2.04743C10.6127 1.7446 10.4924 1.45417 10.2783 1.24001L9.37269 0.334373C9.15853 0.120274 8.8681 0 8.56527 0C8.26244 0 7.97201 0.120274 7.75785 0.334373L6.85222 1.24001L9.37269 3.76048L10.2783 2.85485Z" fill="#C2C2C2"/>
</svg>
