<svg width="48" height="48" viewBox="0 0 48 48" fill="none" xmlns="http://www.w3.org/2000/svg">
<path d="M44 32V8C44 6.93913 43.5786 5.92172 42.8284 5.17157C42.0783 4.42143 41.0609 4 40 4H16C14.9391 4 13.9217 4.42143 13.1716 5.17157C12.4214 5.92172 12 6.93913 12 8V32C12 33.0609 12.4214 34.0783 13.1716 34.8284C13.9217 35.5786 14.9391 36 16 36H40C41.0609 36 42.0783 35.5786 42.8284 34.8284C43.5786 34.0783 44 33.0609 44 32ZM22 24L26.06 29.42L32 22L40 32H16M4 12V40C4 41.0609 4.42143 42.0783 5.17157 42.8284C5.92172 43.5786 6.93913 44 8 44H36V40H8V12" fill="#F9F8F8"/>
</svg>
