<svg width="28" height="28" viewBox="0 0 28 28" fill="none" xmlns="http://www.w3.org/2000/svg">
<path fill-rule="evenodd" clip-rule="evenodd" d="M14.829 3.4222C14.829 3.11967 14.7088 2.82952 14.4949 2.6156C14.281 2.40168 13.9908 2.28149 13.6883 2.28149C13.3858 2.28149 13.0956 2.40168 12.8817 2.6156C12.6678 2.82952 12.5476 3.11967 12.5476 3.4222V5.70361C12.5476 6.00615 12.6678 6.29629 12.8817 6.51021C13.0956 6.72414 13.3858 6.84432 13.6883 6.84432C13.9908 6.84432 14.281 6.72414 14.4949 6.51021C14.7088 6.29629 14.829 6.00615 14.829 5.70361V3.4222ZM7.23534 5.62262C7.01923 5.41997 6.73276 5.30935 6.43654 5.31416C6.14031 5.31897 5.85758 5.43883 5.64817 5.6484C5.43876 5.85796 5.31909 6.14077 5.31449 6.437C5.30989 6.73322 5.42071 7.01962 5.62352 7.23558L7.23648 8.84854C7.45162 9.05633 7.73976 9.17131 8.03885 9.16871C8.33794 9.16611 8.62405 9.04614 8.83554 8.83464C9.04704 8.62315 9.16701 8.33705 9.1696 8.03796C9.1722 7.73887 9.05723 7.45072 8.84944 7.23558L7.23534 5.62262ZM21.7542 7.23558C21.962 7.02044 22.077 6.7323 22.0744 6.43321C22.0718 6.13412 21.9518 5.84801 21.7404 5.63652C21.5289 5.42502 21.2428 5.30506 20.9437 5.30246C20.6446 5.29986 20.3564 5.41483 20.1413 5.62262L18.5283 7.23558C18.3205 7.45072 18.2056 7.73887 18.2082 8.03796C18.2108 8.33705 18.3307 8.62315 18.5422 8.83464C18.7537 9.04614 19.0398 9.16611 19.3389 9.16871C19.638 9.17131 19.9261 9.05633 20.1413 8.84854L21.7542 7.23558ZM13.6883 7.98503C12.1756 7.98503 10.7249 8.58593 9.65531 9.65555C8.58569 10.7252 7.98478 12.1759 7.98478 13.6886C7.98478 15.2012 8.58569 16.6519 9.65531 17.7216C10.7249 18.7912 12.1756 19.3921 13.6883 19.3921C15.201 19.3921 16.6517 18.7912 17.7213 17.7216C18.7909 16.6519 19.3918 15.2012 19.3918 13.6886C19.3918 12.1759 18.7909 10.7252 17.7213 9.65555C16.6517 8.58593 15.201 7.98503 13.6883 7.98503ZM3.42196 12.5479C3.11942 12.5479 2.82928 12.668 2.61536 12.882C2.40143 13.0959 2.28125 13.386 2.28125 13.6886C2.28125 13.9911 2.40143 14.2812 2.61536 14.4952C2.82928 14.7091 3.11942 14.8293 3.42196 14.8293H5.70337C6.0059 14.8293 6.29605 14.7091 6.50997 14.4952C6.72389 14.2812 6.84408 13.9911 6.84408 13.6886C6.84408 13.386 6.72389 13.0959 6.50997 12.882C6.29605 12.668 6.0059 12.5479 5.70337 12.5479H3.42196ZM21.6733 12.5479C21.3707 12.5479 21.0806 12.668 20.8667 12.882C20.6527 13.0959 20.5326 13.386 20.5326 13.6886C20.5326 13.9911 20.6527 14.2812 20.8667 14.4952C21.0806 14.7091 21.3707 14.8293 21.6733 14.8293H23.9547C24.2572 14.8293 24.5473 14.7091 24.7613 14.4952C24.9752 14.2812 25.0954 13.9911 25.0954 13.6886C25.0954 13.386 24.9752 13.0959 24.7613 12.882C24.5473 12.668 24.2572 12.5479 23.9547 12.5479H21.6733ZM8.8483 20.1415C8.95725 20.0363 9.04415 19.9104 9.10393 19.7713C9.16371 19.6321 9.19518 19.4824 9.1965 19.3309C9.19781 19.1795 9.16895 19.0293 9.1116 18.8891C9.05424 18.7489 8.96954 18.6215 8.86243 18.5144C8.75533 18.4073 8.62797 18.3226 8.48778 18.2653C8.34759 18.2079 8.19738 18.1791 8.04592 18.1804C7.89446 18.1817 7.74478 18.2132 7.60561 18.2729C7.46643 18.3327 7.34056 18.4196 7.23534 18.5286L5.62238 20.1415C5.51343 20.2468 5.42653 20.3726 5.36675 20.5118C5.30696 20.651 5.27549 20.8007 5.27418 20.9521C5.27286 21.1036 5.30172 21.2538 5.35908 21.394C5.41643 21.5342 5.50114 21.6615 5.60824 21.7686C5.71534 21.8757 5.84271 21.9604 5.98289 22.0178C6.12308 22.0751 6.27329 22.104 6.42475 22.1027C6.57621 22.1014 6.7259 22.0699 6.86507 22.0101C7.00424 21.9503 7.13011 21.8634 7.23534 21.7545L8.8483 20.1415ZM20.1413 18.5286C19.9261 18.3208 19.638 18.2058 19.3389 18.2084C19.0398 18.211 18.7537 18.331 18.5422 18.5425C18.3307 18.754 18.2108 19.0401 18.2082 19.3392C18.2056 19.6382 18.3205 19.9264 18.5283 20.1415L20.1413 21.7545C20.3564 21.9623 20.6446 22.0773 20.9437 22.0747C21.2428 22.0721 21.5289 21.9521 21.7404 21.7406C21.9518 21.5291 22.0718 21.243 22.0744 20.9439C22.077 20.6448 21.962 20.3567 21.7542 20.1415L20.1413 18.5286ZM14.829 21.6735C14.829 21.371 14.7088 21.0808 14.4949 20.8669C14.281 20.653 13.9908 20.5328 13.6883 20.5328C13.3858 20.5328 13.0956 20.653 12.8817 20.8669C12.6678 21.0808 12.5476 21.371 12.5476 21.6735V23.9549C12.5476 24.2574 12.6678 24.5476 12.8817 24.7615C13.0956 24.9754 13.3858 25.0956 13.6883 25.0956C13.9908 25.0956 14.281 24.9754 14.4949 24.7615C14.7088 24.5476 14.829 24.2574 14.829 23.9549V21.6735Z" fill="#FFBA02"/>
</svg>
