<svg width="24" height="24" viewBox="0 0 24 24" fill="none" xmlns="http://www.w3.org/2000/svg">
<path d="M5.0558 2.99463C4.62554 2.99463 4.21529 3.13471 3.83506 3.41488C3.45483 3.69505 3.2347 4.05527 3.13464 4.49554L2.10402 8.90821C1.85386 9.99886 2.05399 10.9494 2.71439 11.7699L2.99455 12.0501V19.0043C2.99455 19.5046 3.19468 20.0049 3.60492 20.3952C4.01517 20.7854 4.49546 21.0055 4.99577 21.0055H19.0042C19.5045 21.0055 20.0048 20.8054 20.3951 20.3952C20.7853 19.9849 21.0054 19.5046 21.0054 19.0043V12.0501L21.2856 11.7699C21.946 10.9494 22.1461 9.99886 21.896 8.90821L20.8654 4.49554C20.7353 4.05527 20.5051 3.69505 20.1349 3.41488C19.7747 3.13471 19.3845 2.99463 18.9442 2.99463H5.0558ZM18.8942 4.96582L19.9748 9.37849C20.0649 9.80875 19.9748 10.199 19.6947 10.5492C19.4445 10.8594 19.1343 10.9995 18.7541 10.9995C18.4439 10.9995 18.1737 10.8994 17.9536 10.6593C17.7335 10.4291 17.6134 10.159 17.5834 9.83877L16.973 4.99584L18.8942 4.96582ZM5.0558 4.99584H7.02699L6.41662 9.83877C6.29655 10.6292 5.90632 10.9995 5.24592 10.9995C4.83567 10.9995 4.52548 10.8594 4.30535 10.5492C4.02518 10.199 3.93512 9.80875 4.02518 9.37849L5.0558 4.99584ZM9.04822 4.99584H10.9994V9.69868C10.9994 10.0489 10.8893 10.3491 10.6392 10.6192C10.389 10.8794 10.0788 10.9995 9.69861 10.9995C9.3584 10.9995 9.06823 10.8794 8.83809 10.5892C8.60795 10.299 8.49788 9.99886 8.49788 9.65866V9.49856L9.04822 4.99584ZM13.0006 4.99584H14.9518L15.5021 9.49856C15.5822 9.91882 15.5021 10.269 15.2119 10.5692C14.9518 10.8694 14.6116 10.9995 14.2013 10.9995C13.8911 10.9995 13.611 10.8794 13.3608 10.6192C13.1107 10.3491 13.0006 10.0489 13.0006 9.69868V4.99584ZM7.44725 12.0501C8.07763 12.6705 8.8581 13.0007 9.79867 13.0007C10.6392 13.0007 11.3796 12.6705 12 12.0501C12.6904 12.6705 13.4509 13.0007 14.3014 13.0007C15.1719 13.0007 15.9224 12.6705 16.5528 12.0501C17.1131 12.6705 17.8635 13.0007 18.8041 13.0007H19.0343V19.0043H4.99577V13.0007H5.24592C6.15647 13.0007 6.88691 12.6705 7.44725 12.0501Z" fill="#3B3B3B"/>
</svg>
