<svg width="24" height="24" viewBox="0 0 24 24" fill="none" xmlns="http://www.w3.org/2000/svg">
<path d="M18.2346 4.8754H16.4534V3.98482C16.4534 3.74862 16.3596 3.5221 16.1926 3.35508C16.0256 3.18807 15.799 3.09424 15.5628 3.09424C15.3266 3.09424 15.1001 3.18807 14.9331 3.35508C14.7661 3.5221 14.6723 3.74862 14.6723 3.98482V4.8754H9.32879V3.98482C9.32879 3.74862 9.23496 3.5221 9.06794 3.35508C8.90092 3.18807 8.6744 3.09424 8.43821 3.09424C8.20201 3.09424 7.97549 3.18807 7.80847 3.35508C7.64145 3.5221 7.54763 3.74862 7.54763 3.98482V4.8754H5.76647C5.05788 4.8754 4.37831 5.15688 3.87726 5.65793C3.37621 6.15898 3.09473 6.83855 3.09473 7.54714V18.2341C3.09473 18.9427 3.37621 19.6223 3.87726 20.1233C4.37831 20.6243 5.05788 20.9058 5.76647 20.9058H18.2346C18.9432 20.9058 19.6227 20.6243 20.1238 20.1233C20.6248 19.6223 20.9063 18.9427 20.9063 18.2341V7.54714C20.9063 6.83855 20.6248 6.15898 20.1238 5.65793C19.6227 5.15688 18.9432 4.8754 18.2346 4.8754ZM19.1252 18.2341C19.1252 18.4703 19.0313 18.6968 18.8643 18.8638C18.6973 19.0308 18.4708 19.1247 18.2346 19.1247H5.76647C5.53027 19.1247 5.30375 19.0308 5.13673 18.8638C4.96971 18.6968 4.87589 18.4703 4.87589 18.2341V12H19.1252V18.2341ZM19.1252 10.2189H4.87589V7.54714C4.87589 7.31094 4.96971 7.08442 5.13673 6.9174C5.30375 6.75039 5.53027 6.65656 5.76647 6.65656H7.54763V7.54714C7.54763 7.78333 7.64145 8.00986 7.80847 8.17687C7.97549 8.34389 8.20201 8.43772 8.43821 8.43772C8.6744 8.43772 8.90092 8.34389 9.06794 8.17687C9.23496 8.00986 9.32879 7.78333 9.32879 7.54714V6.65656H14.6723V7.54714C14.6723 7.78333 14.7661 8.00986 14.9331 8.17687C15.1001 8.34389 15.3266 8.43772 15.5628 8.43772C15.799 8.43772 16.0256 8.34389 16.1926 8.17687C16.3596 8.00986 16.4534 7.78333 16.4534 7.54714V6.65656H18.2346C18.4708 6.65656 18.6973 6.75039 18.8643 6.9174C19.0313 7.08442 19.1252 7.31094 19.1252 7.54714V10.2189Z" fill="white"/>
</svg>
